<svg width="42" height="32" viewBox="0 0 42 32" fill="none" xmlns="http://www.w3.org/2000/svg">
<path d="M26.491 22.7619H15.3412V2.7243H26.491V22.7619Z" fill="#9FA1A4"/>
<path d="M16.0489 12.7435C16.0489 8.67878 17.952 5.05805 20.9157 2.72471C18.7484 1.01845 16.0132 4.19617e-05 13.0407 4.19617e-05C6.00336 4.19617e-05 0.298828 5.70539 0.298828 12.7435C0.298828 19.7816 6.00336 25.4869 13.0407 25.4869C16.0132 25.4869 18.7484 24.4685 20.9157 22.7623C17.952 20.4289 16.0489 16.8082 16.0489 12.7435Z" fill="#B6B8BB"/>
<path d="M41.5331 12.7435C41.5331 19.7816 35.8285 25.4869 28.7912 25.4869C25.8187 25.4869 23.0835 24.4685 20.9154 22.7623C23.8799 20.4289 25.783 16.8082 25.783 12.7435C25.783 8.67878 23.8799 5.05805 20.9154 2.72471C23.0835 1.01845 25.8187 4.19617e-05 28.7912 4.19617e-05C35.8285 4.19617e-05 41.5331 5.70539 41.5331 12.7435Z" fill="#B6B8BB"/>
<path d="M30.2634 28.4238C30.4117 28.4238 30.6248 28.4522 30.7876 28.5162L30.5608 29.2097C30.4052 29.1457 30.2497 29.1246 30.1006 29.1246C29.6193 29.1246 29.3787 29.4358 29.3787 29.9948V31.8922H28.6422V28.5089H29.3714V28.9197C29.5626 28.6223 29.8389 28.4238 30.2634 28.4238ZM27.5428 29.1814H26.3397V30.7102C26.3397 31.0496 26.4596 31.2765 26.8282 31.2765C27.0194 31.2765 27.2601 31.2125 27.4788 31.0853L27.6911 31.7148C27.4577 31.8777 27.0899 31.9773 26.7715 31.9773C25.9006 31.9773 25.5967 31.5098 25.5967 30.724V29.1814H24.9097V28.5089H25.5967V27.4824H26.3397V28.5089H27.5428V29.1814ZM18.1211 29.9032C18.1997 29.4147 18.4963 29.0817 19.0204 29.0817C19.4944 29.0817 19.799 29.379 19.8768 29.9032H18.1211ZM20.6416 30.2006C20.6343 29.1457 19.9829 28.4238 19.0342 28.4238C18.0434 28.4238 17.3498 29.1457 17.3498 30.2006C17.3498 31.2757 18.0717 31.9765 19.0844 31.9765C19.5941 31.9765 20.0607 31.8493 20.4715 31.5025L20.1101 30.9573C19.8274 31.1841 19.466 31.3113 19.1266 31.3113C18.6526 31.3113 18.2208 31.0918 18.1147 30.4833H20.627C20.6343 30.391 20.6416 30.2994 20.6416 30.2006ZM23.8759 29.3726C23.6709 29.2446 23.2537 29.0817 22.8218 29.0817C22.4184 29.0817 22.1777 29.2308 22.1777 29.4787C22.1777 29.7047 22.4321 29.7687 22.7506 29.8109L23.0973 29.8603C23.8338 29.9672 24.2794 30.2783 24.2794 30.873C24.2794 31.5171 23.7131 31.9773 22.7368 31.9773C22.1842 31.9773 21.6746 31.8355 21.2711 31.5382L21.6179 30.9646C21.8658 31.1558 22.2345 31.3186 22.7441 31.3186C23.2464 31.3186 23.5154 31.1704 23.5154 30.9079C23.5154 30.7175 23.3242 30.6105 22.9207 30.5546L22.5739 30.5052C21.8164 30.3983 21.4056 30.0588 21.4056 29.5071C21.4056 28.8346 21.9582 28.4238 22.8146 28.4238C23.3525 28.4238 23.8411 28.5445 24.1943 28.7779L23.8759 29.3726ZM32.9541 29.123C32.8026 29.123 32.6624 29.1498 32.532 29.2024C32.4023 29.2559 32.2897 29.3304 32.1949 29.426C32.1001 29.5216 32.0256 29.6367 31.9713 29.7704C31.917 29.904 31.8903 30.0515 31.8903 30.2119C31.8903 30.3731 31.917 30.5198 31.9713 30.6535C32.0256 30.7871 32.1001 30.9022 32.1949 30.9978C32.2897 31.0934 32.4023 31.1679 32.532 31.2214C32.6624 31.2749 32.8026 31.3008 32.9541 31.3008C33.1056 31.3008 33.2465 31.2749 33.3762 31.2214C33.5066 31.1679 33.62 31.0934 33.7148 30.9978C33.8112 30.9022 33.8858 30.7871 33.9409 30.6535C33.9952 30.5198 34.0219 30.3731 34.0219 30.2119C34.0219 30.0515 33.9952 29.904 33.9409 29.7704C33.8858 29.6367 33.8112 29.5216 33.7148 29.426C33.62 29.3304 33.5066 29.2559 33.3762 29.2024C33.2465 29.1498 33.1056 29.123 32.9541 29.123ZM32.9541 28.4238C33.2166 28.4238 33.4596 28.4692 33.6832 28.5608C33.9068 28.6515 34.1005 28.7771 34.2633 28.9367C34.427 29.0963 34.5542 29.2851 34.6465 29.5022C34.7389 29.7201 34.7851 29.9567 34.7851 30.2119C34.7851 30.4671 34.7389 30.7037 34.6465 30.9216C34.5542 31.1388 34.427 31.3284 34.2633 31.488C34.1005 31.6476 33.9068 31.7723 33.6832 31.8639C33.4596 31.9546 33.2166 32 32.9541 32C32.6916 32 32.4485 31.9546 32.2249 31.8639C32.0013 31.7723 31.8093 31.6476 31.6472 31.488C31.4852 31.3284 31.358 31.1388 31.2656 30.9216C31.1733 30.7037 31.1271 30.4671 31.1271 30.2119C31.1271 29.9567 31.1733 29.7201 31.2656 29.5022C31.358 29.2851 31.4852 29.0963 31.6472 28.9367C31.8093 28.7771 32.0013 28.6515 32.2249 28.5608C32.4485 28.4692 32.6916 28.4238 32.9541 28.4238ZM13.8207 30.2006C13.8207 29.6059 14.2104 29.1174 14.8472 29.1174C15.4556 29.1174 15.8664 29.5848 15.8664 30.2006C15.8664 30.8163 15.4556 31.283 14.8472 31.283C14.2104 31.283 13.8207 30.7953 13.8207 30.2006ZM16.5599 30.2006V28.5089H15.8243V28.9197C15.5901 28.615 15.2369 28.4238 14.7556 28.4238C13.8069 28.4238 13.0639 29.1668 13.0639 30.2006C13.0639 31.2336 13.8069 31.9773 14.7556 31.9773C15.2369 31.9773 15.5901 31.7861 15.8243 31.4815V31.8922H16.5599V30.2006ZM12.4126 31.8922V29.7687C12.4126 28.9691 11.9029 28.4311 11.0822 28.4238C10.6504 28.4165 10.204 28.551 9.89287 29.0258C9.65953 28.6507 9.2909 28.4238 8.774 28.4238C8.41346 28.4238 8.05941 28.53 7.78314 28.9261V28.5089H7.04749V31.8922H7.79043V30.0167C7.79043 29.4293 8.11612 29.1174 8.61844 29.1174C9.10698 29.1174 9.3549 29.4358 9.3549 30.0094V31.8922H10.0978V30.0167C10.0978 29.4293 10.4381 29.1174 10.9259 29.1174C11.429 29.1174 11.6696 29.4358 11.6696 30.0094V31.8922H12.4126Z" fill="#B6B8BB"/>
</svg>
