<svg width="22" height="21" viewBox="0 0 22 21" fill="none" xmlns="http://www.w3.org/2000/svg">
<path d="M21.3499 9.94446C21.3538 11.411 21.0111 12.8577 20.3499 14.1667C19.566 15.7353 18.3608 17.0546 16.8693 17.977C15.3779 18.8993 13.6591 19.3882 11.9055 19.3889C10.439 19.3927 8.99231 19.0501 7.6833 18.3889L1.34998 20.5L3.46108 14.1667C2.7999 12.8577 2.45726 11.411 2.46108 9.94446C2.46176 8.19086 2.95065 6.47208 3.87299 4.98064C4.79533 3.48919 6.1147 2.28399 7.6833 1.50003C8.99231 0.838844 10.439 0.496208 11.9055 0.500032H12.4611C14.777 0.6278 16.9644 1.60532 18.6045 3.24543C20.2447 4.88553 21.2222 7.07297 21.3499 9.38891V9.94446Z"  stroke-linecap="round" stroke-linejoin="round"/>
</svg>
