<svg width="22" height="28" viewBox="0 0 22 28" fill="none" xmlns="http://www.w3.org/2000/svg">
<path d="M21.4873 9.21716L9.76621 2V12.4044V12.5724L12.9735 14.5454L13.0311 14.4736V10.8707V7.38874L15.8499 9.12972L13.0311 10.8707V14.4736L21.4873 9.21716Z" fill="white"/>
<path d="M0.512695 6.87995V21.3143L9.50705 15.8079H9.53538L6.57249 13.9966L3.73165 15.7376V12.2556L6.57249 13.9966L9.53538 15.8079L9.76621 15.9491L13.197 18.0464L16.0378 19.7874L13.197 21.5284V18.0464L9.76621 15.9491V15.9931V27L21.4873 19.7828L12.9735 14.5454L9.76621 12.5724L0.512695 6.87995Z" fill="white"/>
<path d="M13.0311 10.8707V7.38874L15.8499 9.12972L13.0311 10.8707ZM13.0311 10.8707V14.4736M13.0311 14.4736L21.4873 9.21716L9.76621 2V12.4044V12.5724M13.0311 14.4736L12.9735 14.5454M6.57249 13.9966L3.73165 12.2556V15.7376L6.57249 13.9966ZM6.57249 13.9966L9.53538 15.8079M13.197 18.0464V21.5284L16.0378 19.7874L13.197 18.0464ZM13.197 18.0464L9.76621 15.9491M9.76621 12.5724L0.512695 6.87995V21.3143L9.50705 15.8079H9.53538M9.76621 12.5724L12.9735 14.5454M12.9735 14.5454L21.4873 19.7828L9.76621 27V15.9931V15.9491M9.76621 15.9491L9.53538 15.8079" stroke="#2688E5" stroke-width="0.5" stroke-linecap="round" stroke-linejoin="round"/>
</svg>
