<svg width="75" height="24" viewBox="0 0 75 24" fill="none" xmlns="http://www.w3.org/2000/svg">
<path fill-rule="evenodd" clip-rule="evenodd" d="M38.4368 7.67268C38.3944 11.0158 41.4163 12.8814 43.6926 13.9907C46.0314 15.1289 46.817 15.8587 46.8081 16.8764C46.7902 18.4341 44.9423 19.1214 43.2128 19.1482C40.1954 19.195 38.4412 18.3336 37.0464 17.682L35.9597 22.768C37.359 23.4131 39.95 23.9755 42.637 24C48.9439 24 53.0702 20.8867 53.0926 16.0596C53.1172 9.93351 44.6188 9.59424 44.6768 6.8559C44.6968 6.02573 45.4891 5.13965 47.2254 4.91427C48.0845 4.80056 50.4569 4.71342 53.1461 5.95197L54.2017 1.0312C52.7556 0.504452 50.8965 0 48.5823 0C42.6459 0 38.4704 3.15566 38.4368 7.67268ZM64.345 0.424002C63.1934 0.424002 62.2226 1.09586 61.7896 2.12687L52.7801 23.6384H59.0825L60.3367 20.1725H68.0383L68.7659 23.6384H74.3207L69.4733 0.424002H64.345ZM65.2264 6.69518L67.0452 15.4122H62.0641L65.2264 6.69518ZM30.7955 0.424002L25.8277 23.6384H31.8332L36.7988 0.424002H30.7955ZM21.911 0.424002L15.6599 16.2246L13.1313 2.78963C12.8346 1.29002 11.663 0.424002 10.3618 0.424002H0.142881L0 1.09809C2.09789 1.5533 4.48135 2.28759 5.92521 3.07316C6.80889 3.5529 7.06121 3.97244 7.35124 5.11289L12.1405 23.6384H18.4876L28.2179 0.424002H21.911Z" fill="#B6B8BB"/>
</svg>
