<?xml version="1.0" encoding="utf-8"?><svg viewBox="0 0 201 91" xmlns="http://www.w3.org/2000/svg" xmlns:xlink="http://www.w3.org/1999/xlink"><style>:root>svg{display:none}:root>svg:target{display:block}</style><svg viewBox="0 0 67 28" id="apple-pay" xmlns="http://www.w3.org/2000/svg"><path d="M12.475 3.61c.777-.971 1.304-2.276 1.165-3.61-1.137.057-2.526.75-3.33 1.723-.72.833-1.36 2.193-1.193 3.47 1.277.112 2.553-.638 3.358-1.582zM13.626 5.443c-1.855-.11-3.432 1.053-4.317 1.053-.886 0-2.242-.997-3.71-.97C3.692 5.554 1.92 6.633.95 8.35c-1.992 3.434-.526 8.53 1.412 11.326.941 1.384 2.075 2.908 3.57 2.853 1.412-.055 1.965-.914 3.681-.914 1.715 0 2.214.914 3.708.886 1.55-.027 2.52-1.384 3.46-2.77 1.08-1.577 1.522-3.1 1.55-3.184-.028-.027-2.99-1.163-3.017-4.57-.028-2.851 2.325-4.208 2.436-4.292C16.42 5.72 14.345 5.5 13.626 5.443zM29.773 1.584c4.03 0 6.838 2.778 6.838 6.823 0 4.06-2.865 6.853-6.939 6.853H25.21v7.097h-3.224V1.584h7.788zm-4.564 10.97h3.7c2.807 0 4.405-1.512 4.405-4.132 0-2.62-1.598-4.117-4.39-4.117h-3.715v8.248zM37.453 18.053c0-2.65 2.03-4.276 5.629-4.478l4.146-.244v-1.166c0-1.684-1.138-2.692-3.038-2.692-1.8 0-2.922.863-3.195 2.217h-2.937c.172-2.736 2.504-4.751 6.248-4.751 3.67 0 6.017 1.943 6.017 4.98v10.438h-2.98v-2.49h-.072c-.878 1.684-2.793 2.749-4.78 2.749-2.965 0-5.038-1.843-5.038-4.563zm9.775-1.368V15.49l-3.729.23c-1.857.13-2.908.95-2.908 2.246 0 1.325 1.094 2.188 2.764 2.188 2.174 0 3.873-1.497 3.873-3.469zM53.136 27.928v-2.52c.23.058.748.058 1.007.058 1.44 0 2.217-.604 2.692-2.159 0-.029.274-.921.274-.936l-5.47-15.158h3.368l3.83 12.322h.057l3.83-12.322h3.282l-5.673 15.936C59.038 26.819 57.541 28 54.403 28c-.26 0-1.037-.029-1.267-.072z"/></svg><svg fill="none" viewBox="0 0 21 16" id="arrow-left" xmlns="http://www.w3.org/2000/svg"><path d="M20 8H1m0 0l7-7M1 8l7 7" stroke="#2688E5" stroke-linecap="round" stroke-linejoin="round"/></svg><svg fill="none" viewBox="0 0 21 9" id="faq-arrow" xmlns="http://www.w3.org/2000/svg"><path d="M1 1l9.5 7L20 1" stroke="#AEC1D2" stroke-width="2" stroke-linecap="round" stroke-linejoin="round"/></svg><svg fill="none" viewBox="0 0 111 91" id="footer-logo" xmlns="http://www.w3.org/2000/svg"><path d="M92.748 27.876c-3.82 5.942-9.941 8.184-17.401 10.858-7.202 2.573-20.172 2.462-20.172 2.462 3.182 1.095 10.348 2.764 18.285 2.533 7.99-.233 12.027-2.046 17.188-2.526 6.284-.586 10.584 4.409 8.753 8.34 3.71-5.14 4.938-10.3 4.64-16.534.66.435 1.434.666 2.224.665a4.077 4.077 0 003.443-1.893 4.099 4.099 0 00-1.029-5.498 4.078 4.078 0 00-5.542.672c-1.256-4.303-3.978-8.79-8.056-12.955 1.724 3.987-.04 10.321-2.337 13.883" fill="#C5C5C5"/><path d="M92.748 27.876c-3.82 5.942-9.941 8.184-17.401 10.858-7.202 2.573-20.172 2.462-20.172 2.462 3.182 1.095 10.348 2.764 18.285 2.533 7.99-.233 12.027-2.046 17.188-2.526 6.284-.586 10.584 4.409 8.753 8.34 3.71-5.14 4.938-10.3 4.64-16.534.66.435 1.434.666 2.224.665a4.077 4.077 0 003.443-1.893 4.099 4.099 0 00-1.029-5.498 4.078 4.078 0 00-5.542.672c-1.256-4.303-3.978-8.79-8.056-12.955 1.724 3.987-.04 10.321-2.337 13.883" fill="#C5C9CE"/><path d="M70.08 4.134a4.07 4.07 0 001.256 2.944c-8.89 2.365-14.263 9.95-16.162 13.745 1.813-2.05 9.926-6.15 13.159 0 1.265 2.416.851 5.988-1.44 8.973-2.242 2.92-4.948 5.133-6.1 6.067-2.095 1.702-4.652 4.046-5.618 5.333 6.206-1.904 13.328-4.765 19.236-10.8 3.324-3.404 4.435-5.843 5.755-10.38.72-2.5 2.284-4.78 4.612-6.031 2.995-1.615 6.92-1.705 10.303.015-2.331-2.613-8.841-7.404-17.505-7.633a4.095 4.095 0 00-.627-5.21A4.076 4.076 0 0071.72.86a4.084 4.084 0 00-1.64 3.274z" fill="#C5C5C5"/><path d="M70.08 4.134a4.07 4.07 0 001.256 2.944c-8.89 2.365-14.263 9.95-16.162 13.745 1.813-2.05 9.926-6.15 13.159 0 1.265 2.416.851 5.988-1.44 8.973-2.242 2.92-4.948 5.133-6.1 6.067-2.095 1.702-4.652 4.046-5.618 5.333 6.206-1.904 13.328-4.765 19.236-10.8 3.324-3.404 4.435-5.843 5.755-10.38.72-2.5 2.284-4.78 4.612-6.031 2.995-1.615 6.92-1.705 10.303.015-2.331-2.613-8.841-7.404-17.505-7.633a4.095 4.095 0 00-.627-5.21A4.076 4.076 0 0071.72.86a4.084 4.084 0 00-1.64 3.274z" fill="#C5C9CE"/><path d="M65.595 53.114c3.065 2.257 4.99 3.558 7.215 6.247 4.034 4.866 2.712 11.737-.602 14.705 2.69-1.908 7.18-5.216 11.806-9v.1a4.093 4.093 0 002.38 3.721 4.068 4.068 0 004.364-.625 4.086 4.086 0 001.244-4.24 4.086 4.086 0 00-3.332-2.894c4.555-4.01 8.69-8.184 10.73-11.586-2.512 2.55-8.603 3.842-12.394 3.759-6.283-.148-9.856-1.4-16.62-3.759-5.538-1.922-12.99-5.32-15.211-8.346 1.132 3.116 4.22 7.352 10.42 11.906" fill="#C5C5C5"/><path d="M65.595 53.114c3.065 2.257 4.99 3.558 7.215 6.247 4.034 4.866 2.712 11.737-.602 14.705 2.69-1.908 7.18-5.216 11.806-9v.1a4.093 4.093 0 002.38 3.721 4.068 4.068 0 004.364-.625 4.086 4.086 0 001.244-4.24 4.086 4.086 0 00-3.332-2.894c4.555-4.01 8.69-8.184 10.73-11.586-2.512 2.55-8.603 3.842-12.394 3.759-6.283-.148-9.856-1.4-16.62-3.759-5.538-1.922-12.99-5.32-15.211-8.346 1.132 3.116 4.22 7.352 10.42 11.906" fill="#C5C9CE"/><path d="M51.926 60.376c-.42 3.37-.462 8.635-2.829 11.65-2.214 2.823-8.328 3.328-10.97 2.04 4.376 2.938 10.446 6.298 15.227 8.977a4.1 4.1 0 00-.887 6.873 4.076 4.076 0 006.562-2.185 4.1 4.1 0 00-2.138-4.63c4.791-2.691 10.914-6.08 15.317-9.035-2.64 1.288-8.749.783-10.963-2.04-2.366-3.015-2.415-8.28-2.83-11.65-.797-6.39-3.24-19.18-3.24-19.18s-2.445 12.786-3.248 19.176" fill="#C5C5C5"/><path d="M51.926 60.376c-.42 3.37-.462 8.635-2.829 11.65-2.214 2.823-8.328 3.328-10.97 2.04 4.376 2.938 10.446 6.298 15.227 8.977a4.1 4.1 0 00-.887 6.873 4.076 4.076 0 006.562-2.185 4.1 4.1 0 00-2.138-4.63c4.791-2.691 10.914-6.08 15.317-9.035-2.64 1.288-8.749.783-10.963-2.04-2.366-3.015-2.415-8.28-2.83-11.65-.797-6.39-3.24-19.18-3.24-19.18s-2.445 12.786-3.248 19.176" fill="#C5C9CE"/><path d="M32.105 4.135c-.002.8.23 1.581.668 2.248-8.677.23-15.179 5.005-17.516 7.618 3.384-1.72 7.319-1.615 10.31 0 2.328 1.252 3.896 3.532 4.616 6.031 1.317 4.523 2.428 6.962 5.752 10.357 5.904 6.035 13.03 8.903 19.24 10.807-.964-1.287-3.53-3.647-5.621-5.339-1.153-.934-3.864-3.148-6.104-6.067-2.292-2.985-2.707-6.559-1.436-8.973 3.231-6.15 11.343-2.044 13.16.006-1.9-3.795-7.279-11.386-16.165-13.751a4.086 4.086 0 001.181-3.685 4.09 4.09 0 00-2.416-3.02A4.068 4.068 0 0032.589 2.2a4.094 4.094 0 00-.484 1.936z" fill="#C5C5C5"/><path d="M32.105 4.135c-.002.8.23 1.581.668 2.248-8.677.23-15.179 5.005-17.516 7.618 3.384-1.72 7.319-1.615 10.31 0 2.328 1.252 3.896 3.532 4.616 6.031 1.317 4.523 2.428 6.962 5.752 10.357 5.904 6.035 13.03 8.903 19.24 10.807-.964-1.287-3.53-3.647-5.621-5.339-1.153-.934-3.864-3.148-6.104-6.067-2.292-2.985-2.707-6.559-1.436-8.973 3.231-6.15 11.343-2.044 13.16.006-1.9-3.795-7.279-11.386-16.165-13.751a4.086 4.086 0 001.181-3.685 4.09 4.09 0 00-2.416-3.02A4.068 4.068 0 0032.589 2.2a4.094 4.094 0 00-.484 1.936z" fill="#C5C9CE"/><path d="M7.205 26.947a4.08 4.08 0 00-3.658-1.424 4.075 4.075 0 00-3.165 2.326 4.098 4.098 0 001.735 5.313 4.043 4.043 0 004.184-.161c-.302 6.24.92 11.403 4.642 16.541-1.839-3.93 2.464-8.933 8.75-8.347 5.163.48 9.189 2.294 17.185 2.526 7.935.23 15.109-1.43 18.297-2.525 0 0-12.974.103-20.17-2.47-7.472-2.666-13.582-4.916-17.407-10.85-2.297-3.563-4.065-9.888-2.34-13.875-4.08 4.16-6.788 8.643-8.05 12.946" fill="#C5C5C5"/><path d="M7.205 26.947a4.08 4.08 0 00-3.658-1.424 4.075 4.075 0 00-3.165 2.326 4.098 4.098 0 001.735 5.313 4.043 4.043 0 004.184-.161c-.302 6.24.92 11.403 4.642 16.541-1.839-3.93 2.464-8.933 8.75-8.347 5.163.48 9.189 2.294 17.185 2.526 7.935.23 15.109-1.43 18.297-2.525 0 0-12.974.103-20.17-2.47-7.472-2.666-13.582-4.916-17.407-10.85-2.297-3.563-4.065-9.888-2.34-13.875-4.08 4.16-6.788 8.643-8.05 12.946" fill="#C5C9CE"/><path d="M39.952 49.557c-6.754 2.36-10.338 3.596-16.62 3.744-3.795.083-9.882-1.208-12.389-3.759 2.035 3.404 6.174 7.576 10.726 11.586a4.074 4.074 0 00-3.333 2.897 4.097 4.097 0 001.246 4.241 4.074 4.074 0 006.102-.888c.422-.66.645-1.427.644-2.211a.96.96 0 00-.01-.1 231.766 231.766 0 0011.808 8.999c-3.314-2.968-4.632-9.831-.597-14.706 2.227-2.688 4.15-3.993 7.214-6.239 6.204-4.562 9.287-8.817 10.432-11.925-2.228 3.025-9.68 6.431-15.223 8.361z" fill="#C5C5C5"/><path d="M39.952 49.557c-6.754 2.36-10.338 3.596-16.62 3.744-3.795.083-9.882-1.208-12.389-3.759 2.035 3.404 6.174 7.576 10.726 11.586a4.074 4.074 0 00-3.333 2.897 4.097 4.097 0 001.246 4.241 4.074 4.074 0 006.102-.888c.422-.66.645-1.427.644-2.211a.96.96 0 00-.01-.1 231.766 231.766 0 0011.808 8.999c-3.314-2.968-4.632-9.831-.597-14.706 2.227-2.688 4.15-3.993 7.214-6.239 6.204-4.562 9.287-8.817 10.432-11.925-2.228 3.025-9.68 6.431-15.223 8.361z" fill="#C5C9CE"/></svg><svg viewBox="0 0 72 28" id="google-pay" xmlns="http://www.w3.org/2000/svg"><path d="M33.308 21.873h-2.62V1.487h6.945c1.76 0 3.262.587 4.49 1.76 1.255 1.174 1.883 2.607 1.883 4.299 0 1.733-.628 3.165-1.883 4.325-1.215 1.16-2.716 1.733-4.49 1.733h-4.325v8.27zm0-17.875v7.11h4.38c1.037 0 1.91-.356 2.593-1.052.696-.695 1.05-1.541 1.05-2.497 0-.941-.354-1.773-1.05-2.47-.683-.723-1.542-1.077-2.593-1.077h-4.38v-.014zM50.856 7.464c1.938 0 3.466.518 4.585 1.555 1.118 1.037 1.678 2.457 1.678 4.258v8.596h-2.497v-1.937h-.11c-1.077 1.596-2.524 2.388-4.325 2.388-1.542 0-2.824-.45-3.861-1.365-1.037-.914-1.556-2.047-1.556-3.411 0-1.447.546-2.593 1.637-3.439 1.092-.86 2.552-1.283 4.367-1.283 1.556 0 2.838.287 3.834.86v-.6c0-.915-.354-1.679-1.078-2.32-.723-.641-1.569-.955-2.538-.955-1.46 0-2.62.614-3.466 1.856L45.22 10.22c1.27-1.842 3.152-2.756 5.636-2.756zm-3.384 10.125c0 .682.286 1.255.873 1.705.573.45 1.255.683 2.033.683 1.105 0 2.088-.41 2.948-1.229.86-.818 1.296-1.773 1.296-2.879-.819-.641-1.951-.969-3.411-.969-1.065 0-1.952.26-2.661.765-.723.532-1.078 1.173-1.078 1.924zM71.365 7.914L62.632 28H59.93l3.248-7.027-5.759-13.059h2.852l4.148 10.016h.055l4.039-10.016h2.852zM22.887 11.953c0-.854-.076-1.671-.218-2.457H11.687v4.503l6.325.001a5.417 5.417 0 01-2.347 3.627v2.921h3.765c2.198-2.034 3.457-5.041 3.457-8.595z"/><path d="M15.666 17.627c-1.048.707-2.397 1.12-3.976 1.12-3.05 0-5.637-2.055-6.563-4.825H1.243v3.013a11.69 11.69 0 0010.447 6.438c3.157 0 5.81-1.039 7.74-2.826l-3.764-2.92z"/><path d="M4.76 11.687c0-.778.13-1.53.367-2.236V6.438H1.243A11.628 11.628 0 000 11.688c0 1.888.449 3.67 1.243 5.248l3.884-3.012a7.049 7.049 0 01-.366-2.237z"/><path d="M11.69 4.626c1.723 0 3.267.593 4.485 1.753l3.336-3.333C17.485 1.158 14.843 0 11.69 0 7.123 0 3.167 2.62 1.243 6.438L5.127 9.45c.926-2.77 3.513-4.825 6.563-4.825z"/></svg><svg fill="none" viewBox="0 0 18 18" id="icon-close" xmlns="http://www.w3.org/2000/svg"><path opacity=".4" d="M1 17L17 1M1 1l16 16" stroke="#13264A" stroke-linecap="round" stroke-linejoin="round"/></svg><svg fill="none" viewBox="0 0 41 50" id="icon-doc" xmlns="http://www.w3.org/2000/svg"><path d="M26.35 1H2.95c-.517 0-1.013.21-1.379.586A2.026 2.026 0 001 3v44c0 .53.205 1.04.571 1.414.366.375.862.586 1.379.586h35.1c.517 0 1.013-.21 1.379-.586.366-.375.571-.884.571-1.414V15M26.35 1L40 15M26.35 1v14H40M12.7 27h15.6m-15.6 8h15.6" stroke="#127CE1" stroke-width="2" stroke-linecap="round" stroke-linejoin="round"/></svg><svg fill="none" viewBox="0 0 20 20" id="icon-dz" xmlns="http://www.w3.org/2000/svg"><path d="M11.929 11.929C10.357 13.55 10.243 15.57 10.107 20c4.129 0 6.979-.014 8.45-1.443C19.986 17.086 20 14.1 20 10.107c-4.429.143-6.45.25-8.071 1.822zM0 10.107c0 3.993.014 6.979 1.443 8.45C2.914 19.986 5.764 20 9.893 20c-.143-4.429-.25-6.45-1.822-8.071C6.45 10.357 4.43 10.243 0 10.107zM9.893 0C5.77 0 2.914.014 1.443 1.443.014 2.914 0 5.9 0 9.893c4.429-.143 6.45-.25 8.071-1.822C9.643 6.45 9.757 4.43 9.893 0zm2.036 8.071C10.357 6.45 10.243 4.43 10.107 0c4.129 0 6.979.014 8.45 1.443C19.986 2.914 20 5.9 20 9.893c-4.429-.143-6.45-.25-8.071-1.822z" fill="#fff" fill-opacity=".7"/></svg><svg fill="none" viewBox="0 0 13 22" id="icon-fb" xmlns="http://www.w3.org/2000/svg"><path d="M12.158.166h-3.27a5.56 5.56 0 00-3.855 1.537 5.148 5.148 0 00-1.596 3.71V8.56H.167v4.197h3.27v8.394h4.36v-8.394h3.27l1.091-4.197h-4.36V5.412c0-.278.114-.545.319-.742.204-.196.482-.307.77-.307h3.271V.166z" fill="#fff" fill-opacity=".7"/></svg><svg fill="none" viewBox="0 0 22 22" id="icon-inst" xmlns="http://www.w3.org/2000/svg"><path fill-rule="evenodd" clip-rule="evenodd" d="M.167 4.663A4.497 4.497 0 014.663.166h11.992a4.497 4.497 0 014.496 4.497v11.991a4.497 4.497 0 01-4.496 4.497H4.663a4.497 4.497 0 01-4.496-4.497V4.663zm14.989 5.995a4.497 4.497 0 11-8.994 0 4.497 4.497 0 018.994 0zm1.499-5.246a.75.75 0 100-1.499.75.75 0 000 1.5z" fill="#fff" fill-opacity=".7"/></svg><svg fill="none" viewBox="0 0 13 22" id="icon-ok" xmlns="http://www.w3.org/2000/svg"><path d="M6.187 11.011c2.939 0 5.334-2.435 5.334-5.422C11.521 2.6 9.127.166 6.188.166 3.217.166.821 2.601.821 5.589c0 2.987 2.396 5.422 5.366 5.422zm0-7.663c1.214 0 2.204 1.007 2.204 2.24 0 1.235-.99 2.241-2.204 2.241-1.214 0-2.204-1.006-2.204-2.24a2.187 2.187 0 012.204-2.24zM8.327 15.46c1.086-.26 2.14-.682 3.099-1.299.734-.454.958-1.46.479-2.208a1.541 1.541 0 00-2.172-.487 6.689 6.689 0 01-7.187 0 1.575 1.575 0 00-2.172.487c-.416.747-.192 1.721.543 2.176a10 10 0 003.098 1.299l-2.97 3.02a1.606 1.606 0 000 2.24c.319.325.702.455 1.117.455a1.64 1.64 0 001.118-.455l2.94-2.987 2.938 2.987a1.544 1.544 0 002.204 0 1.606 1.606 0 000-2.24L8.327 15.46z" fill="#fff" fill-opacity=".7"/></svg><svg fill="none" viewBox="0 0 20 20" id="icon-search" xmlns="http://www.w3.org/2000/svg"><path d="M19 19l-4.35-4.35M17 9A8 8 0 111 9a8 8 0 0116 0z" stroke="#000" stroke-linecap="round" stroke-linejoin="round"/></svg><svg fill="none" viewBox="0 0 20 20" id="icon-search-input" xmlns="http://www.w3.org/2000/svg"><path d="M1 19l4.35-4.35M3 9a8 8 0 1016 0A8 8 0 003 9z" stroke="#6D7276" stroke-linecap="round" stroke-linejoin="round"/></svg><svg fill="none" viewBox="0 0 19 22" id="icon-tt" xmlns="http://www.w3.org/2000/svg"><path d="M10.115.184c1.129-.018 2.251-.007 3.373-.018.067 1.339.542 2.702 1.509 3.648.965.97 2.33 1.414 3.657 1.564V8.9c-1.244-.04-2.494-.303-3.623-.846-.492-.226-.95-.516-1.399-.813-.005 2.555.01 5.106-.016 7.651a6.714 6.714 0 01-1.166 3.446c-1.129 1.677-3.087 2.77-5.099 2.805-1.233.071-2.466-.27-3.517-.898C2.09 19.202.865 17.296.687 15.25c-.02-.438-.028-.874-.01-1.301A6.584 6.584 0 012.904 9.61c1.429-1.26 3.43-1.861 5.303-1.506.018 1.295-.033 2.59-.033 3.884-.856-.28-1.856-.202-2.604.325-.546.359-.961.908-1.177 1.53-.179.443-.128.936-.117 1.407.205 1.435 1.566 2.64 3.02 2.51.963-.01 1.886-.577 2.388-1.407.162-.29.344-.587.354-.929.085-1.564.05-3.121.061-4.686.007-3.525-.01-7.04.016-10.554z" fill="#fff" fill-opacity=".7"/></svg><svg fill="none" viewBox="0 0 25 15" id="icon-vk" xmlns="http://www.w3.org/2000/svg"><path fill-rule="evenodd" clip-rule="evenodd" d="M4.017.334H1.398C.65.334.5.68.5 1.062c0 .681.888 4.06 4.135 8.53 2.164 3.053 5.213 4.708 7.988 4.708 1.665 0 1.871-.368 1.871-1v-2.308c0-.735.158-.882.685-.882.389 0 1.054.191 2.608 1.663 1.776 1.744 2.07 2.527 3.068 2.527h2.62c.747 0 1.122-.368.906-1.093-.236-.723-1.084-1.772-2.21-3.015-.61-.708-1.526-1.472-1.803-1.853-.388-.49-.277-.709 0-1.145 0 0 3.191-4.415 3.524-5.914.166-.545 0-.946-.792-.946h-2.62c-.665 0-.972.346-1.139.728 0 0-1.332 3.188-3.219 5.26-.61.6-.887.79-1.22.79-.167 0-.408-.19-.408-.736V1.28c0-.654-.193-.946-.748-.946H9.63c-.416 0-.667.304-.667.591 0 .62.944.763 1.041 2.508V7.22c0 .83-.153.982-.486.982-.888 0-3.048-3.204-4.329-6.869-.25-.712-.502-1-1.172-1z" fill="#fff" fill-opacity=".7"/></svg><svg fill="none" viewBox="0 0 24 18" id="icon-yt" xmlns="http://www.w3.org/2000/svg"><path fill-rule="evenodd" clip-rule="evenodd" d="M22.558 1.903c.364.374.622.838.748 1.344a30.92 30.92 0 01.49 5.684 30.917 30.917 0 01-.49 5.6 2.964 2.964 0 01-2.069 2.132c-1.834.491-9.172.491-9.172.491s-7.337 0-9.171-.49a2.965 2.965 0 01-2.07-2.048 30.928 30.928 0 01-.49-5.685c-.01-1.891.155-3.78.49-5.641a2.965 2.965 0 012.07-2.133C4.728.666 12.065.666 12.065.666s7.338 0 9.172.448c.502.142.958.414 1.321.789zm-6.76 7.028L9.666 12.42V5.444l6.132 3.487z" fill="#fff" fill-opacity=".7"/></svg><svg fill="none" viewBox="0 0 21 15" id="link-arrow" xmlns="http://www.w3.org/2000/svg"><path opacity=".7" d="M1 7.5h19m0 0l-7-7m7 7l-7 7"/></svg><svg viewBox="0 0 54 45" id="logo" xmlns="http://www.w3.org/2000/svg"><path d="M45.387 13.62c-1.87 2.908-4.864 4.005-8.515 5.314C33.347 20.193 27 20.139 27 20.139c1.558.535 5.064 1.352 8.949 1.24 3.91-.115 5.885-1.002 8.41-1.237 3.076-.287 5.18 2.158 4.284 4.081 1.816-2.515 2.416-5.04 2.27-8.09a1.994 1.994 0 002.773-.6 2.005 2.005 0 00-1.424-3.062 1.992 1.992 0 00-1.79.699c-.615-2.106-1.947-4.302-3.943-6.34.844 1.951-.02 5.05-1.144 6.794"/><path d="M34.294 2.002a1.992 1.992 0 00.615 1.44C30.56 4.6 27.93 8.313 27 10.17c.887-1.003 4.857-3.01 6.44 0 .619 1.182.416 2.93-.706 4.391-1.096 1.429-2.42 2.512-2.985 2.97-1.024.832-2.276 1.979-2.749 2.609 3.037-.932 6.523-2.332 9.414-5.286 1.626-1.665 2.17-2.858 2.816-5.08.353-1.222 1.118-2.338 2.257-2.95 1.466-.79 3.386-.835 5.042.007-1.14-1.279-4.327-3.623-8.566-3.735A2.003 2.003 0 0036.859.086a1.991 1.991 0 00-2.352 1.02c-.14.278-.212.585-.212.896z"/><path d="M32.1 25.97c1.5 1.106 2.442 1.742 3.53 3.058 1.975 2.381 1.328 5.744-.294 7.196a111.303 111.303 0 005.777-4.404v.05a2.003 2.003 0 001.165 1.82 1.99 1.99 0 002.744-1.254 2.004 2.004 0 00-.608-2.075 1.992 1.992 0 00-1.023-.468c2.23-1.963 4.253-4.005 5.252-5.67-1.23 1.248-4.21 1.88-6.066 1.84-3.074-.073-4.823-.685-8.133-1.84-2.71-.94-6.356-2.604-7.444-4.084.554 1.525 2.065 3.597 5.1 5.826"/><path d="M25.41 29.525c-.205 1.649-.225 4.225-1.384 5.701-1.083 1.381-4.075 1.628-5.368.998 2.141 1.438 5.112 3.082 7.452 4.393a2 2 0 00-1.118 2.232 2.003 2.003 0 001.922 1.588 1.994 1.994 0 001.973-1.526 2.006 2.006 0 00-1.047-2.266c2.345-1.317 5.341-2.975 7.496-4.42-1.292.63-4.281.382-5.365-.999-1.158-1.476-1.182-4.052-1.385-5.701-.39-3.127-1.586-9.386-1.586-9.386s-1.196 6.257-1.59 9.384"/><path d="M15.711 2.003c-.001.39.112.773.327 1.1-4.246.112-7.428 2.449-8.572 3.727 1.656-.841 3.582-.79 5.046 0 1.139.613 1.906 1.729 2.258 2.952.645 2.213 1.189 3.407 2.815 5.068 2.89 2.954 6.377 4.357 9.415 5.289-.471-.63-1.727-1.785-2.75-2.613-.564-.457-1.89-1.54-2.988-2.969-1.121-1.46-1.324-3.21-.702-4.391 1.581-3.01 5.551-1 6.44.003-.93-1.857-3.562-5.572-7.91-6.73a1.999 1.999 0 00.172-2.69 1.995 1.995 0 00-2.659-.416 1.997 1.997 0 00-.892 1.67z"/><path d="M3.526 13.166a1.998 1.998 0 00-1.79-.697 1.994 1.994 0 00-1.549 1.138 2.005 2.005 0 00.849 2.6 1.979 1.979 0 002.048-.079c-.148 3.054.45 5.58 2.271 8.095-.9-1.923 1.206-4.371 4.282-4.085 2.527.235 4.497 1.123 8.41 1.236 3.883.113 7.393-.7 8.953-1.235 0 0-6.349.05-9.87-1.209-3.656-1.305-6.646-2.406-8.518-5.31-1.125-1.743-1.99-4.838-1.146-6.79-1.995 2.036-3.321 4.23-3.939 6.336"/><path d="M19.551 24.23c-3.305 1.155-5.06 1.76-8.133 1.832-1.857.041-4.836-.59-6.063-1.839.996 1.666 3.021 3.707 5.249 5.67a1.993 1.993 0 00-1.631 1.417 2.005 2.005 0 00.61 2.076 1.993 1.993 0 002.986-.435c.206-.323.315-.698.315-1.082a.449.449 0 00-.005-.049c2.268 1.85 4.462 3.47 5.779 4.404-1.622-1.452-2.268-4.811-.293-7.196 1.09-1.316 2.03-1.954 3.53-3.053 3.037-2.233 4.545-4.315 5.105-5.836-1.09 1.48-4.737 3.147-7.449 4.091z"/></svg><svg fill="none" viewBox="0 0 42 32" id="maestro-pay" xmlns="http://www.w3.org/2000/svg"><path d="M26.491 22.762h-11.15V2.724h11.15v20.038z" fill="#9FA1A4"/><path d="M16.049 12.743c0-4.064 1.903-7.685 4.867-10.018A12.688 12.688 0 0013.04 0C6.003 0 .299 5.705.299 12.743c0 7.039 5.704 12.744 12.742 12.744 2.972 0 5.707-1.018 7.875-2.725a12.722 12.722 0 01-4.867-10.019z" fill="#B6B8BB"/><path d="M41.533 12.743c0 7.039-5.705 12.744-12.742 12.744a12.692 12.692 0 01-7.876-2.725 12.72 12.72 0 004.868-10.019 12.72 12.72 0 00-4.868-10.018A12.692 12.692 0 0128.791 0c7.037 0 12.742 5.705 12.742 12.743zM30.263 28.424c.149 0 .362.028.525.092l-.227.694a1.193 1.193 0 00-.46-.085c-.482 0-.722.31-.722.87v1.897h-.737V28.51h.73v.41c.19-.297.467-.495.891-.495zm-2.72.757H26.34v1.53c0 .339.12.566.488.566.191 0 .432-.065.65-.192l.213.63c-.233.163-.601.262-.92.262-.87 0-1.174-.467-1.174-1.253v-1.543h-.687v-.672h.687v-1.027h.743v1.027h1.203v.672zm-9.422.722c.079-.488.375-.821.9-.821.473 0 .778.297.856.821H18.12zm2.52.298c-.007-1.055-.658-1.777-1.607-1.777-.99 0-1.684.722-1.684 1.777 0 1.075.722 1.776 1.734 1.776.51 0 .977-.128 1.387-.474l-.36-.546a1.609 1.609 0 01-.984.354c-.474 0-.906-.22-1.012-.828h2.512c.007-.092.015-.184.015-.282zm3.235-.828a2.17 2.17 0 00-1.054-.291c-.404 0-.644.149-.644.397 0 .226.254.29.573.332l.346.05c.737.106 1.182.417 1.182 1.012 0 .644-.566 1.104-1.542 1.104-.553 0-1.062-.142-1.466-.439l.347-.573c.248.19.617.354 1.126.354.502 0 .771-.149.771-.411 0-.19-.19-.298-.594-.353l-.347-.05c-.758-.107-1.168-.446-1.168-.998 0-.672.552-1.083 1.409-1.083.537 0 1.026.12 1.38.354l-.32.595zm9.078-.25c-.151 0-.292.027-.422.08a1.013 1.013 0 00-.56.567 1.163 1.163 0 00-.082.442c0 .161.027.308.081.442a1.013 1.013 0 00.56.568c.131.053.272.079.423.079.152 0 .292-.026.422-.08a1.013 1.013 0 00.565-.567c.054-.134.08-.28.08-.442 0-.16-.026-.308-.08-.442a1.013 1.013 0 00-.565-.568c-.13-.052-.27-.079-.422-.079zm0-.7c.263 0 .506.046.73.138a1.72 1.72 0 01.963.941 1.8 1.8 0 01.138.71 1.8 1.8 0 01-.138.71 1.722 1.722 0 01-.964.942c-.223.09-.466.136-.729.136-.262 0-.505-.045-.73-.136a1.765 1.765 0 01-.577-.376c-.162-.16-.289-.35-.381-.566a1.8 1.8 0 01-.139-.71 1.8 1.8 0 01.139-.71c.092-.217.22-.406.381-.565.162-.16.354-.286.578-.376.224-.092.467-.137.73-.137zm-19.133 1.778c0-.595.39-1.084 1.026-1.084.609 0 1.02.468 1.02 1.084 0 .615-.411 1.082-1.02 1.082-.637 0-1.026-.488-1.026-1.082zm2.739 0v-1.692h-.736v.41c-.234-.304-.587-.495-1.068-.495-.95 0-1.692.743-1.692 1.777 0 1.033.743 1.776 1.692 1.776.48 0 .834-.19 1.068-.495v.41h.736v-1.691zm-4.147 1.691V29.77c0-.8-.51-1.338-1.33-1.345-.433-.008-.879.127-1.19.602-.233-.375-.602-.602-1.119-.602-.36 0-.715.106-.99.502v-.417h-.737v3.383h.743v-1.875c0-.588.326-.9.828-.9.489 0 .737.319.737.892v1.883h.743v-1.875c0-.588.34-.9.828-.9.503 0 .744.319.744.892v1.883h.743z" fill="#B6B8BB"/></svg><svg fill="none" viewBox="0 0 42 26" id="master-card-pay" xmlns="http://www.w3.org/2000/svg"><path d="M26.346 2.719H15.263v19.99h11.083V2.719z" fill="#9FA1A4"/><path d="M15.977 12.713a12.73 12.73 0 011.27-5.557 12.683 12.683 0 013.567-4.438 12.626 12.626 0 00-13.363-1.44 12.683 12.683 0 00-5.2 4.69 12.748 12.748 0 000 13.49 12.683 12.683 0 005.2 4.69 12.626 12.626 0 0013.363-1.44 12.683 12.683 0 01-3.566-4.438 12.73 12.73 0 01-1.271-5.557z" fill="#B6B8BB"/><path d="M41.299 12.713c0 2.386-.669 4.723-1.93 6.745a12.682 12.682 0 01-5.2 4.69 12.625 12.625 0 01-13.363-1.44 12.706 12.706 0 003.564-4.439 12.754 12.754 0 000-11.112 12.706 12.706 0 00-3.565-4.439 12.625 12.625 0 0113.363-1.44 12.683 12.683 0 015.202 4.69 12.748 12.748 0 011.929 6.745zM40.106 20.59v-.409h.164v-.083h-.418v.084h.164v.409h.09zm.813 0v-.493h-.128l-.148.34-.148-.34h-.128v.494h.09v-.373l.139.321h.094l.138-.321v.373h.09z" fill="#B6B8BB"/></svg><svg fill="none" viewBox="0 0 86 24" id="mir-pay" xmlns="http://www.w3.org/2000/svg"><path fill-rule="evenodd" clip-rule="evenodd" d="M23.452 0v.01c-.01 0-3.322-.01-4.205 3.145-.81 2.892-3.091 10.878-3.154 11.098h-.63S13.127 6.09 12.307 3.144C11.425-.01 8.103 0 8.103 0H.533v24h7.57V9.747h.631L13.149 24h5.257L22.82 9.757h.631V24h7.57V0h-7.57zM51.102 0s-2.218.2-3.259 2.515l-5.362 11.738h-.63V0h-7.57v24h7.149s2.323-.21 3.364-2.515l5.257-11.738h.63V24h7.57V0h-7.149zM61.615 10.9V24h7.57v-7.65h8.2a8.188 8.188 0 007.728-5.45H61.615zM77.385 0H60.553c.842 4.57 4.28 8.238 8.727 9.432 1.009.273 2.07.42 3.164.42h12.973c.116-.545.169-1.1.169-1.677 0-4.517-3.67-8.175-8.2-8.175z" fill="#B6B8BB"/></svg><svg fill="none" viewBox="0 0 27 19" id="pay-types-card" xmlns="http://www.w3.org/2000/svg"><path d="M1 7.25h24.75M3.25.5H23.5a2.25 2.25 0 012.25 2.25v13.5a2.25 2.25 0 01-2.25 2.25H3.25A2.25 2.25 0 011 16.25V2.75A2.25 2.25 0 013.25.5z"/></svg><svg fill="none" viewBox="0 0 26 21" id="pay-types-fck" xmlns="http://www.w3.org/2000/svg"><path d="M3.255 20.5v-8.571H9.92M25.16 20.5H1.35m8.571 0V6.214h6.667m0-5.714h6.667v20h-6.667V.5z"/></svg><svg fill="none" viewBox="0 0 22 21" id="pay-types-sms" xmlns="http://www.w3.org/2000/svg"><path d="M21.35 9.944a9.31 9.31 0 01-1 4.223 9.444 9.444 0 01-8.445 5.222 9.311 9.311 0 01-4.222-1L1.35 20.5l2.111-6.333a9.311 9.311 0 01-1-4.223A9.444 9.444 0 017.683 1.5a9.311 9.311 0 014.223-1h.555a9.422 9.422 0 018.889 8.889v.555z"/></svg><svg fill="none" viewBox="0 0 23 19" id="pay-types-transfer" xmlns="http://www.w3.org/2000/svg"><path d="M13.35 18.5l9-9-9-9m-12.6 18l9-9-9-9"/></svg><svg viewBox="0 0 23 21" id="pay-types-volunteer" xmlns="http://www.w3.org/2000/svg"><path d="M.726 20.25a.5.5 0 10.866.5l-.866-.5zm21.09.5a.5.5 0 00.866-.5l-.865.5zM18.162 7.457a6.457 6.457 0 01-6.457 6.457v1a7.457 7.457 0 007.457-7.457h-1zm-6.457 6.457a6.457 6.457 0 01-6.457-6.457h-1a7.457 7.457 0 007.457 7.457v-1zM5.247 7.457A6.457 6.457 0 0111.704 1V0a7.457 7.457 0 00-7.457 7.457h1zM11.704 1a6.457 6.457 0 016.457 6.457h1A7.457 7.457 0 0011.704 0v1zM1.592 20.75a11.679 11.679 0 014.275-4.273l-.5-.866a12.678 12.678 0 00-4.64 4.639l.865.5zm4.275-4.273a11.679 11.679 0 015.837-1.563v-1c-2.225 0-4.41.585-6.337 1.697l.5.866zm5.837-1.563c2.05 0 4.063.539 5.838 1.563l.5-.866a12.679 12.679 0 00-6.338-1.697v1zm5.838 1.563a11.678 11.678 0 014.274 4.273l.866-.5a12.677 12.677 0 00-4.64-4.639l-.5.866z"/></svg><svg viewBox="0 0 201 28" id="samsung-pay" xmlns="http://www.w3.org/2000/svg"><path d="M156.615 11.06h-2.91V3.528h2.91c2.267 0 3.807 1.68 3.807 3.752 0 2.1-1.54 3.78-3.807 3.78zm.28-11.06h-6.996v20.44h3.806v-5.852h3.162c4.254 0 7.388-3.248 7.388-7.308 0-4.032-3.134-7.28-7.36-7.28zM173.94 17.303c-2.799 0-4.953-2.24-4.953-5.095 0-2.828 2.154-5.04 4.953-5.04 2.798 0 4.897 2.268 4.897 5.04 0 2.828-2.099 5.095-4.897 5.095zm4.702-11.283c-1.176-1.4-3.107-2.297-5.261-2.297-4.142 0-8.116 3.109-8.116 8.54 0 5.35 4.113 8.513 8.059 8.513 2.155 0 4.114-.952 5.318-2.464v2.128h3.777V4.06h-3.777v1.96zM192.525 15.092L187.963 4.06h-4.03l6.717 15.568L187.207 28h3.835l9.766-23.94h-3.974l-4.309 11.032zM110.73 15.64h-.105L106.231.61h-7.097v18.949h4.703l-.265-15.548h.105l4.72 15.548h6.808V.609h-4.735l.26 15.03zM24.708 2.384l.107-.002 2.548 17.374H32.5L28.976.61H20.47l-3.544 19.146h5.167l2.615-17.372zM49.358.61L47 15.25h-.109L44.537.61h-7.799l-.421 19.146h4.785l.12-17.212h.105l3.194 17.212h4.851l3.195-17.21.106-.002.12 17.212h4.781L57.153.61h-7.795zM6.949 20.505c3.459 0 6.303-1.181 6.758-4.378.232-1.652.061-2.735-.02-3.138-.808-4.01-8.061-5.205-8.603-7.447a2.468 2.468 0 01-.02-1.007c.135-.614.55-1.285 1.746-1.285 1.12 0 1.776.691 1.776 1.735V6.17h4.771V4.822C13.357.652 9.617 0 6.912 0 3.513 0 .733 1.128.227 4.25.088 5.104.069 5.868.27 6.833c.83 3.913 7.624 5.044 8.609 7.522.187.463.127 1.057.038 1.416-.156.638-.589 1.289-1.863 1.289-1.195 0-1.92-.694-1.92-1.736l-.005-1.856H.002L0 14.944c0 4.271 3.356 5.561 6.949 5.561zM67.282 5.59a2.441 2.441 0 01-.024-.993c.136-.609.548-1.273 1.73-1.273 1.111 0 1.76.682 1.76 1.717v1.172h4.724V4.88c0-4.129-3.705-4.773-6.384-4.773-3.362 0-6.115 1.113-6.615 4.206-.138.846-.157 1.603.044 2.556.818 3.876 7.547 4.995 8.522 7.45.183.46.126 1.044.036 1.402-.154.63-.582 1.272-1.844 1.272-1.184 0-1.903-.683-1.903-1.718l-.004-1.835h-5.076l-.001 1.461c0 4.229 3.324 5.505 6.88 5.505 3.425 0 6.241-1.169 6.69-4.334.23-1.636.062-2.707-.02-3.108-.8-3.97-7.981-5.153-8.515-7.373zM93.806.607h-4.839V14.77c.002.246-.005.525-.045.731-.095.471-.504 1.388-1.833 1.388-1.331 0-1.742-.917-1.835-1.388a3.741 3.741 0 01-.046-.731V.607h-4.835v13.727c-.01.354.027 1.074.044 1.26.335 3.574 3.156 4.732 6.672 4.732 3.514 0 6.335-1.158 6.668-4.731.02-.187.056-.908.05-1.26V.606zM127.005 9.003v2.791h1.96v2.781c.004.242-.006.51-.045.726-.087.512-.57 1.39-1.954 1.39-1.383 0-1.865-.878-1.955-1.39a4.466 4.466 0 01-.045-.726V5.822c0-.312.023-.654.078-.906.105-.472.514-1.39 1.904-1.39 1.462 0 1.825.968 1.912 1.39.057.276.061.731.06.73v1.073h4.822V6.08c-.004 0 .017-.651-.045-1.26-.352-3.591-3.32-4.732-6.71-4.732-3.393 0-6.285 1.152-6.711 4.731-.04.32-.081.92-.081 1.26l-.001 8.056c.001.36.011.623.066 1.26.319 3.488 3.334 4.732 6.725 4.732 3.388 0 6.407-1.245 6.723-4.732.058-.637.066-.9.07-1.26V9.003h-6.773z"/></svg><svg viewBox="0 0 79 28" id="sber-pay" xmlns="http://www.w3.org/2000/svg"><path d="M56.953 17.003c1.408-.427 2.915-.226 4.364-.27.471 2.423-2.492 3.78-4.43 2.891-1.048-.472-1.072-2.255.066-2.621zM41.387 7.12c2.002.075 4.107-.26 6.028.451 1.579.574 1.849 2.59 1.357 3.995-.342 1.152-1.49 1.821-2.615 2.002-1.578.253-3.184.082-4.774.127.017-2.19.02-4.385.004-6.575zm24.447 2.215c1.791 4.411 3.63 8.802 5.454 13.2-.376.83-.645 1.945-1.613 2.266-.751.284-1.483-.174-2.115-.526.03.953.027 1.907-.007 2.857 1.094.595 2.45.71 3.616.27 1.288-.643 1.907-2.04 2.412-3.305 1.757-4.917 3.496-9.842 5.277-14.749-1.067-.01-2.133-.01-3.199-.014-1.029 2.94-1.828 5.964-2.963 8.865-1.192-2.946-2.32-5.919-3.52-8.865-1.114.007-2.228.007-3.342 0zm-11.8.919c.01 1.274.01 2.55-.027 3.824 1.288-1.948 3.892-2.748 6.09-2.075 1.151.39 1.161 1.757 1.227 2.762-1.764.01-3.548-.072-5.294.228-1.326.223-2.662 1.159-2.874 2.563-.325 1.63.072 3.657 1.647 4.511 2.252 1.196 5.557.482 6.66-1.961-.006.769-.003 1.534 0 2.303.954.004 1.907.004 2.86 0-.037-3.154.076-6.312-.057-9.462-.048-1.764-1.425-3.274-3.137-3.599-2.355-.454-5.01-.413-7.095.906zM24.78 5.446c-3.64 2.74-7.3 5.45-10.956 8.164-1.737-1.128-3.503-2.211-5.243-3.332 0 1.353-.01 2.706.01 4.056 1.764 1.056 3.486 2.177 5.216 3.29 4.237-3.112 8.437-6.277 12.654-9.417-.506-.954-1.039-1.893-1.681-2.761zm13.358-1.36c.01 6.11.02 12.216.014 18.323 1.076 0 2.152 0 3.229.007.051-1.893.017-3.79.024-5.683 2.85-.027 5.956.229 8.471-1.377 2.512-1.617 2.967-5.136 1.983-7.761-.77-1.989-2.898-2.99-4.894-3.264-2.925-.396-5.885-.201-8.827-.246zM.01 13.635c-.205 5.188 2.823 10.321 7.412 12.724 2.358 1.387 5.184 1.831 7.884 1.568 4.692-.482 8.96-3.622 10.949-7.88 1.367-2.618 1.592-5.67 1.179-8.557-.984.758-1.996 1.48-2.97 2.248.069 3.828-1.982 7.624-5.3 9.555-2.642 1.569-5.99 1.904-8.875.827-3.855-1.33-6.69-5.078-7.016-9.127-.481-4.399 2.092-8.9 6.11-10.734 3.322-1.61 7.427-1.23 10.461.844.909-.67 1.804-1.353 2.71-2.023-2.556-1.9-5.652-3.134-8.871-3.08C6.445-.076.037 6.442.01 13.638z"/></svg><svg fill="none" viewBox="0 0 22 28" id="sbp-btn-icon" xmlns="http://www.w3.org/2000/svg"><path d="M21.487 9.217L9.767 2v10.572l3.207 1.973.057-.071V7.389l2.819 1.74-2.819 1.742v3.603l8.456-5.257zM.513 6.88v14.434l8.994-5.506h.028l-2.963-1.811-2.84 1.74v-3.481l2.84 1.74 2.963 1.812.231.141 3.431 2.097 2.84 1.741-2.84 1.741v-3.482l-3.43-2.097V27l11.72-7.217-8.513-5.238-3.208-1.973L.513 6.88z" fill="#fff"/><path d="M13.031 10.87V7.39l2.819 1.74-2.819 1.742zm0 0v3.604m0 0l8.456-5.257L9.767 2v10.572m3.264 1.902l-.058.071m-6.4-.548l-2.841-1.741v3.482l2.84-1.741zm0 0l2.962 1.81m3.662 2.24v3.481l2.84-1.74-2.84-1.742zm0 0l-3.43-2.098m0-3.377L.512 6.88v14.434l8.994-5.506h.028m.231-3.236l3.207 1.973m0 0l8.514 5.238L9.767 27V15.949m0 0l-.232-.141" stroke="#2688E5" stroke-width=".5" stroke-linecap="round" stroke-linejoin="round"/></svg><svg fill="none" viewBox="0 0 12 26" id="sl-next" xmlns="http://www.w3.org/2000/svg"><path d="M1 25l8.4-10.08a3 3 0 000-3.84L1 1" stroke="#5A5A5A" stroke-width="2" stroke-linecap="round" stroke-linejoin="round"/></svg><svg fill="none" viewBox="0 0 12 26" id="sl-prev" xmlns="http://www.w3.org/2000/svg"><path d="M11 25L2.6 14.92a3 3 0 010-3.84L11 1" stroke="#5A5A5A" stroke-width="2" stroke-linecap="round" stroke-linejoin="round"/></svg><svg fill="none" viewBox="0 0 58 32" id="spb-pay" xmlns="http://www.w3.org/2000/svg"><path d="M11.55 17.593l3.915 2.577v4.78L11.532 32l.018-14.407z" fill="#B6B8BB"/><path d="M8.305 15.558l3.905 2.266-11.593 7.05 3.784-6.896 3.904-2.42zM26.515 9.044l-7.46-.037-3.594-2.163L11.555 0l14.96 9.044z" fill="#B6B8BB"/><path d="M11.555 0l3.906 6.843.008 9.43-3.938-1.204L11.555 0zM.586 6.885l3.828 6.968-.013 4.125-3.784 6.895L.586 6.885z" fill="#B6B8BB"/><path d="M.586 6.885l25.87 15.85-7.413.051-14.63-8.933L.587 6.885zM19.054 9.006l7.461.038-11.043 6.797-.011-4.642 3.593-2.193zM40.57 10.13c.907-.829 2.15-1.247 3.372-1.208 1.277-.026 2.564.06 3.834-.09-.275.844-.833 1.575-1.205 2.384-.915.017-1.832-.017-2.746.014-1.176.096-2.297 1.05-2.412 2.25 1.07-1.068 2.744-1.14 4.131-.789.93.316 1.757 1.014 2.094 1.953.311.825.362 1.732.159 2.589-.308 1.175-1.252 2.085-2.365 2.515-1.312.494-2.822.52-4.129-.004-1.24-.505-2.117-1.68-2.417-2.967-.328-1.147-.285-2.843.052-4.008a5.794 5.794 0 011.631-2.64zm3.175 4.475c-.698-.139-1.484.146-1.846.76-.657 1.115.246 2.78 1.72 2.571 1.608-.229 2.025-2.824.126-3.331zm-10.39-2.885c1.446-.355 3.1-.252 4.334.65-.408.66-.777 1.342-1.151 2.02-.604-.2-1.19-.52-1.843-.505-.692-.02-1.442.25-1.835.846a2.003 2.003 0 00-.032 2.142c.363.607 1.077.888 1.754.951.53-.06 1.067-.134 1.556-.359.118-.073.253-.07.386-.06.239.683.762 1.249.968 1.941-1.331.712-2.919.858-4.377.503-1.004-.295-1.961-.871-2.536-1.767-.91-1.398-.875-3.375.17-4.691.63-.851 1.594-1.405 2.607-1.67zm15.846.036c2.808-.02 5.618-.021 8.425 0-.024 2.671-.009 5.345-.006 8.016-.945.004-1.891.006-2.836-.002.044-1.753-.044-3.504.011-5.251a.71.71 0 00-.093-.38c-.863.019-1.728.02-2.59-.002-.054 1.874-.01 3.753-.022 5.629-.961.017-1.923.008-2.884.005.001-2.673.013-5.344-.005-8.015z" fill="#B6B8BB"/><path d="M15.464 24.95l3.58-2.164 7.412-.052L11.533 32l3.931-7.05z" fill="#B6B8BB"/></svg><svg fill="none" viewBox="0 0 75 24" id="visa-pay" xmlns="http://www.w3.org/2000/svg"><path fill-rule="evenodd" clip-rule="evenodd" d="M38.437 7.673c-.043 3.343 2.98 5.208 5.256 6.318 2.338 1.138 3.124 1.868 3.115 2.885-.018 1.558-1.866 2.245-3.595 2.272-3.018.047-4.772-.814-6.167-1.466l-1.086 5.086c1.399.645 3.99 1.207 6.677 1.232 6.307 0 10.433-3.113 10.456-7.94.024-6.126-8.474-6.466-8.416-9.204.02-.83.812-1.716 2.548-1.942.86-.113 3.232-.2 5.921 1.038l1.056-4.92C52.756.503 50.897 0 48.582 0 42.646 0 38.47 3.156 38.437 7.673zM64.345.424a2.737 2.737 0 00-2.555 1.703l-9.01 21.511h6.303l1.254-3.466h7.701l.728 3.466h5.555L69.473.424h-5.128zm.881 6.271l1.82 8.717h-4.982l3.162-8.717zM30.796.424l-4.968 23.214h6.005L36.8.424h-6.003zm-8.885 0l-6.251 15.8L13.13 2.79c-.296-1.5-1.468-2.366-2.77-2.366H.144L0 1.098c2.098.455 4.481 1.19 5.925 1.975.884.48 1.136.9 1.426 2.04l4.79 18.525h6.347L28.218.424H21.91z" fill="#B6B8BB"/></svg></svg>