<svg width="33" height="74" viewBox="0 0 33 74" fill="none" xmlns="http://www.w3.org/2000/svg">
<path d="M18.1692 27.7096V2.80406C18.1692 2.12676 18.1692 1.7881 18.1326 1.59945C17.7999 -0.115413 15.4952 -0.588219 14.5143 0.857174C14.4064 1.01619 14.2795 1.31233 14.0258 1.90461C5.53486 21.7287 -4.58931 51.4951 2.25753 60.7096C7.2051 67.368 16.8771 70.9476 25.7291 72.7139C28.8968 73.346 30.4806 73.662 30.6494 73.6668C32.5029 73.7197 33.329 72.4165 32.4901 70.7628C32.4137 70.6123 31.1908 68.9623 28.7448 65.6625C20.7007 54.81 18.2536 37.3529 18.1692 27.7096Z" fill="url(#paint0_linear_1328:44947)"/>
<path d="M18.1692 27.7096V2.80406C18.1692 2.12676 18.1692 1.7881 18.1326 1.59945C17.7999 -0.115413 15.4952 -0.588219 14.5143 0.857174C14.4064 1.01619 14.2795 1.31233 14.0258 1.90461C5.53486 21.7287 -4.58931 51.4951 2.25753 60.7096C7.2051 67.368 16.8771 70.9476 25.7291 72.7139C28.8968 73.346 30.4806 73.662 30.6494 73.6668C32.5029 73.7197 33.329 72.4165 32.4901 70.7628C32.4137 70.6123 31.1908 68.9623 28.7448 65.6625C20.7007 54.81 18.2536 37.3529 18.1692 27.7096Z" fill="url(#paint1_radial_1328:44947)"/>
<path d="M18.1692 27.7096V2.80406C18.1692 2.12676 18.1692 1.7881 18.1326 1.59945C17.7999 -0.115413 15.4952 -0.588219 14.5143 0.857174C14.4064 1.01619 14.2795 1.31233 14.0258 1.90461C5.53486 21.7287 -4.58931 51.4951 2.25753 60.7096C7.2051 67.368 16.8771 70.9476 25.7291 72.7139C28.8968 73.346 30.4806 73.662 30.6494 73.6668C32.5029 73.7197 33.329 72.4165 32.4901 70.7628C32.4137 70.6123 31.1908 68.9623 28.7448 65.6625C20.7007 54.81 18.2536 37.3529 18.1692 27.7096Z" fill="#F7FAFD"/>
<path d="M18.1692 27.7096V2.80406C18.1692 2.12676 18.1692 1.7881 18.1326 1.59945C17.7999 -0.115413 15.4952 -0.588219 14.5143 0.857174C14.4064 1.01619 14.2795 1.31233 14.0258 1.90461C5.53486 21.7287 -4.58931 51.4951 2.25753 60.7096C7.2051 67.368 16.8771 70.9476 25.7291 72.7139C28.8968 73.346 30.4806 73.662 30.6494 73.6668C32.5029 73.7197 33.329 72.4165 32.4901 70.7628C32.4137 70.6123 31.1908 68.9623 28.7448 65.6625C20.7007 54.81 18.2536 37.3529 18.1692 27.7096Z" fill="white"/>
<defs>
<linearGradient id="paint0_linear_1328:44947" x1="19.3516" y1="66.1022" x2="18.1371" y2="66.1918" gradientUnits="userSpaceOnUse">
<stop stop-color="#99CDFF"/>
<stop offset="0.979596" stop-color="#379EFF"/>
</linearGradient>
<radialGradient id="paint1_radial_1328:44947" cx="0" cy="0" r="1" gradientUnits="userSpaceOnUse" gradientTransform="translate(18.8156 73.2726) rotate(-82.9811) scale(6.04172 1.85576)">
<stop stop-color="#99D4FF"/>
<stop offset="1" stop-color="#4E91F5"/>
</radialGradient>
</defs>
</svg>



