<svg width="22" height="22" viewBox="0 0 22 22" fill="none" xmlns="http://www.w3.org/2000/svg">
<path fill-rule="evenodd" clip-rule="evenodd" d="M0.166649 4.66277C0.166649 2.17928 2.17991 0.166016 4.6634 0.166016H16.6547C19.1382 0.166016 21.1515 2.17928 21.1515 4.66277V16.6541C21.1515 19.1376 19.1382 21.1509 16.6547 21.1509H4.6634C2.17991 21.1509 0.166649 19.1376 0.166649 16.6541V4.66277ZM15.1558 10.6584C15.1558 13.1419 13.1426 15.1552 10.6591 15.1552C8.17558 15.1552 6.16232 13.1419 6.16232 10.6584C6.16232 8.17495 8.17558 6.16169 10.6591 6.16169C13.1426 6.16169 15.1558 8.17495 15.1558 10.6584ZM16.6547 5.41223C17.0687 5.41223 17.4042 5.07668 17.4042 4.66277C17.4042 4.24885 17.0687 3.91331 16.6547 3.91331C16.2408 3.91331 15.9053 4.24885 15.9053 4.66277C15.9053 5.07668 16.2408 5.41223 16.6547 5.41223Z" fill="white" fill-opacity="0.7"/>
</svg>
