<svg width="86" height="24" viewBox="0 0 86 24" fill="none" xmlns="http://www.w3.org/2000/svg">
<path fill-rule="evenodd" clip-rule="evenodd" d="M23.4522 4.5662e-07V0.0104808C23.4417 0.0104808 20.13 3.99793e-07 19.2469 3.15458C18.4374 6.04716 16.156 14.0332 16.0929 14.2533H15.4621C15.4621 14.2533 13.1281 6.08908 12.3081 3.1441C11.425 -0.01048 8.10278 4.5662e-07 8.10278 4.5662e-07H0.533203V24H8.10278V9.74672H8.41818H8.73358L13.1492 24H18.4058L22.8214 9.7572H23.4522V24H31.0218V4.5662e-07H23.4522Z" fill="#B6B8BB"/>
<path fill-rule="evenodd" clip-rule="evenodd" d="M51.1022 0C51.1022 0 48.8839 0.199127 47.843 2.51528L42.4813 14.2533H41.8505V0H34.2809V24H41.4299C41.4299 24 43.7534 23.7904 44.7942 21.4847L50.0508 9.74672H50.6816V24H58.2512V0H51.1022Z" fill="#B6B8BB"/>
<path fill-rule="evenodd" clip-rule="evenodd" d="M61.6155 10.8996V24H69.1851V16.3494H77.3854C80.96 16.3494 83.9878 14.0751 85.1127 10.8996H61.6155Z" fill="#B6B8BB"/>
<path fill-rule="evenodd" clip-rule="evenodd" d="M77.3853 0H60.5535C61.3945 4.56943 64.8324 8.23755 69.2795 9.43231C70.2888 9.7048 71.3506 9.85153 72.444 9.85153H85.4174C85.5331 9.30655 85.5856 8.75109 85.5856 8.17467C85.5856 3.65764 81.9165 0 77.3853 0Z" fill="#B6B8BB"/>
</svg>
