<svg width="22" height="28" fill="none" xmlns="http://www.w3.org/2000/svg"><path d="M21.487 9.217L9.767 2v10.572l3.207 1.973.057-.071V7.389l2.819 1.74-2.819 1.742v3.603l8.456-5.257zM.513 6.88v14.434l8.994-5.506h.028l-2.963-1.811-2.84 1.74v-3.481l2.84 1.74 2.963 1.812.231.141 3.431 2.097 2.84 1.741-2.84 1.741v-3.482l-3.43-2.097V27l11.72-7.217-8.513-5.238-3.208-1.973L.513 6.88z" fill="#fff"/><path d="M13.031 10.87V7.39l2.819 1.74-2.819 1.742zm0 0v3.604m0 0l8.456-5.257L9.767 2v10.572m3.264 1.902l-.058.071m-6.4-.548l-2.841-1.741v3.482l2.84-1.741zm0 0l2.962 1.81m3.662 2.24v3.481l2.84-1.74-2.84-1.742zm0 0l-3.43-2.098m0-3.377L.512 6.88v14.434l8.994-5.506h.028m.231-3.236l3.207 1.973m0 0l8.514 5.238L9.767 27V15.949m0 0l-.232-.141" stroke="#2688E5" stroke-width=".5" stroke-linecap="round" stroke-linejoin="round"/></svg>249 13.9966L9.53538 15.8079M13.197 18.0464V21.5284L16.0378 19.7874L13.197 18.0464ZM13.197 18.0464L9.76621 15.9491M9.76621 12.5724L0.512695 6.87995V21.3143L9.50705 15.8079H9.53538M9.76621 12.5724L12.9735 14.5454M12.9735 14.5454L21.4873 19.7828L9.76621 27V15.9931V15.9491M9.76621 15.9491L9.53538 15.8079" stroke="#2688E5" stroke-width="0.5" stroke-linecap="round" stroke-linejoin="round"/>
</svg>
